<mxfile host="Electron" modified="2024-05-02T18:14:52.673Z" agent="Mozilla/5.0 (Windows NT 10.0; Win64; x64) AppleWebKit/537.36 (KHTML, like Gecko) draw.io/23.1.5 Chrome/120.0.6099.109 Electron/28.1.0 Safari/537.36" etag="PIdbZaZNT1j1XQrv3pNR" version="23.1.5" type="device">
  <diagram id="R2lEEEUBdFMjLlhIrx00" name="Page-1">
    <mxGraphModel dx="1461" dy="831" grid="1" gridSize="10" guides="1" tooltips="1" connect="1" arrows="1" fold="1" page="1" pageScale="1" pageWidth="850" pageHeight="1100" math="0" shadow="0" extFonts="Permanent Marker^https://fonts.googleapis.com/css?family=Permanent+Marker">
      <root>
        <mxCell id="0" />
        <mxCell id="1" parent="0" />
        <mxCell id="jFr1V5iLm8L49rTAl1Lo-57" value="HandleRecords" style="shape=associativeEntity;whiteSpace=wrap;html=1;align=center;rotation=0;" parent="1" vertex="1">
          <mxGeometry x="380" y="470" width="110" height="60" as="geometry" />
        </mxCell>
        <mxCell id="jFr1V5iLm8L49rTAl1Lo-60" value="" style="edgeStyle=entityRelationEdgeStyle;fontSize=12;html=1;endArrow=ERoneToMany;rounded=0;" parent="1" source="jFr1V5iLm8L49rTAl1Lo-57" target="jFr1V5iLm8L49rTAl1Lo-79" edge="1">
          <mxGeometry width="100" height="100" relative="1" as="geometry">
            <mxPoint x="332.5" y="500" as="sourcePoint" />
            <mxPoint x="482.5" y="530" as="targetPoint" />
            <Array as="points">
              <mxPoint x="410" y="500" />
            </Array>
          </mxGeometry>
        </mxCell>
        <mxCell id="jFr1V5iLm8L49rTAl1Lo-61" value="" style="edgeStyle=entityRelationEdgeStyle;fontSize=12;html=1;endArrow=ERoneToMany;rounded=0;" parent="1" source="jFr1V5iLm8L49rTAl1Lo-57" target="jFr1V5iLm8L49rTAl1Lo-74" edge="1">
          <mxGeometry width="100" height="100" relative="1" as="geometry">
            <mxPoint x="500" y="500" as="sourcePoint" />
            <mxPoint x="600" y="400" as="targetPoint" />
          </mxGeometry>
        </mxCell>
        <mxCell id="jFr1V5iLm8L49rTAl1Lo-65" value="Articles" style="rounded=1;arcSize=10;whiteSpace=wrap;html=1;align=center;" parent="1" vertex="1">
          <mxGeometry x="200" y="287.5" width="100" height="40" as="geometry" />
        </mxCell>
        <mxCell id="jFr1V5iLm8L49rTAl1Lo-66" value="ArticleID" style="ellipse;whiteSpace=wrap;html=1;align=center;fontStyle=4;" parent="1" vertex="1">
          <mxGeometry x="70" y="180" width="100" height="40" as="geometry" />
        </mxCell>
        <mxCell id="jFr1V5iLm8L49rTAl1Lo-67" value="" style="endArrow=none;html=1;rounded=0;" parent="1" source="jFr1V5iLm8L49rTAl1Lo-66" target="jFr1V5iLm8L49rTAl1Lo-65" edge="1">
          <mxGeometry relative="1" as="geometry">
            <mxPoint x="510" y="420" as="sourcePoint" />
            <mxPoint x="670" y="420" as="targetPoint" />
          </mxGeometry>
        </mxCell>
        <mxCell id="jFr1V5iLm8L49rTAl1Lo-68" value="Name" style="ellipse;whiteSpace=wrap;html=1;align=center;" parent="1" vertex="1">
          <mxGeometry x="140" y="130" width="100" height="40" as="geometry" />
        </mxCell>
        <mxCell id="jFr1V5iLm8L49rTAl1Lo-69" value="Color" style="ellipse;whiteSpace=wrap;html=1;align=center;" parent="1" vertex="1">
          <mxGeometry x="260" y="130" width="100" height="40" as="geometry" />
        </mxCell>
        <mxCell id="jFr1V5iLm8L49rTAl1Lo-70" value="Size" style="ellipse;whiteSpace=wrap;html=1;align=center;" parent="1" vertex="1">
          <mxGeometry x="320" y="190" width="100" height="40" as="geometry" />
        </mxCell>
        <mxCell id="jFr1V5iLm8L49rTAl1Lo-71" value="" style="endArrow=none;html=1;rounded=0;" parent="1" source="jFr1V5iLm8L49rTAl1Lo-68" target="jFr1V5iLm8L49rTAl1Lo-65" edge="1">
          <mxGeometry relative="1" as="geometry">
            <mxPoint x="510" y="420" as="sourcePoint" />
            <mxPoint x="670" y="420" as="targetPoint" />
          </mxGeometry>
        </mxCell>
        <mxCell id="jFr1V5iLm8L49rTAl1Lo-72" value="" style="endArrow=none;html=1;rounded=0;" parent="1" source="jFr1V5iLm8L49rTAl1Lo-69" target="jFr1V5iLm8L49rTAl1Lo-65" edge="1">
          <mxGeometry relative="1" as="geometry">
            <mxPoint x="234" y="180" as="sourcePoint" />
            <mxPoint x="250" y="280" as="targetPoint" />
          </mxGeometry>
        </mxCell>
        <mxCell id="jFr1V5iLm8L49rTAl1Lo-73" value="" style="endArrow=none;html=1;rounded=0;" parent="1" source="jFr1V5iLm8L49rTAl1Lo-70" target="jFr1V5iLm8L49rTAl1Lo-65" edge="1">
          <mxGeometry relative="1" as="geometry">
            <mxPoint x="380" y="237" as="sourcePoint" />
            <mxPoint x="320" y="355" as="targetPoint" />
          </mxGeometry>
        </mxCell>
        <mxCell id="jFr1V5iLm8L49rTAl1Lo-74" value="Orders" style="whiteSpace=wrap;html=1;align=center;" parent="1" vertex="1">
          <mxGeometry x="640" y="480" width="100" height="40" as="geometry" />
        </mxCell>
        <mxCell id="jFr1V5iLm8L49rTAl1Lo-75" value="OrderID" style="ellipse;whiteSpace=wrap;html=1;align=center;fontStyle=4;" parent="1" vertex="1">
          <mxGeometry x="425" y="160" width="100" height="40" as="geometry" />
        </mxCell>
        <mxCell id="jFr1V5iLm8L49rTAl1Lo-77" value="" style="endArrow=none;html=1;rounded=0;" parent="1" source="jFr1V5iLm8L49rTAl1Lo-75" target="W6sS12mCfC2lYu0C6Cq5-1" edge="1">
          <mxGeometry relative="1" as="geometry">
            <mxPoint x="635" y="250" as="sourcePoint" />
            <mxPoint x="795" y="250" as="targetPoint" />
          </mxGeometry>
        </mxCell>
        <mxCell id="jFr1V5iLm8L49rTAl1Lo-78" value="" style="endArrow=none;html=1;rounded=0;" parent="1" source="W6sS12mCfC2lYu0C6Cq5-2" target="W6sS12mCfC2lYu0C6Cq5-1" edge="1">
          <mxGeometry relative="1" as="geometry">
            <mxPoint x="495.95920656167095" y="360.06541903757693" as="sourcePoint" />
            <mxPoint x="610" y="260" as="targetPoint" />
          </mxGeometry>
        </mxCell>
        <mxCell id="jFr1V5iLm8L49rTAl1Lo-79" value="Staffs" style="whiteSpace=wrap;html=1;align=center;" parent="1" vertex="1">
          <mxGeometry x="147.5" y="480" width="100" height="40" as="geometry" />
        </mxCell>
        <mxCell id="jFr1V5iLm8L49rTAl1Lo-82" value="StaffID" style="ellipse;whiteSpace=wrap;html=1;align=center;fontStyle=4;" parent="1" vertex="1">
          <mxGeometry x="47.5" y="590" width="100" height="40" as="geometry" />
        </mxCell>
        <mxCell id="jFr1V5iLm8L49rTAl1Lo-83" value="Name" style="ellipse;whiteSpace=wrap;html=1;align=center;" parent="1" vertex="1">
          <mxGeometry x="147.5" y="640" width="100" height="40" as="geometry" />
        </mxCell>
        <mxCell id="jFr1V5iLm8L49rTAl1Lo-84" value="Permission" style="ellipse;whiteSpace=wrap;html=1;align=center;" parent="1" vertex="1">
          <mxGeometry x="232.5" y="590" width="100" height="40" as="geometry" />
        </mxCell>
        <mxCell id="jFr1V5iLm8L49rTAl1Lo-85" value="" style="endArrow=none;html=1;rounded=0;" parent="1" source="jFr1V5iLm8L49rTAl1Lo-79" target="jFr1V5iLm8L49rTAl1Lo-82" edge="1">
          <mxGeometry relative="1" as="geometry">
            <mxPoint x="47.5" y="550" as="sourcePoint" />
            <mxPoint x="207.5" y="550" as="targetPoint" />
          </mxGeometry>
        </mxCell>
        <mxCell id="jFr1V5iLm8L49rTAl1Lo-86" value="" style="endArrow=none;html=1;rounded=0;" parent="1" source="jFr1V5iLm8L49rTAl1Lo-79" target="jFr1V5iLm8L49rTAl1Lo-83" edge="1">
          <mxGeometry relative="1" as="geometry">
            <mxPoint x="207.5" y="650" as="sourcePoint" />
            <mxPoint x="367.5" y="650" as="targetPoint" />
          </mxGeometry>
        </mxCell>
        <mxCell id="jFr1V5iLm8L49rTAl1Lo-87" value="" style="endArrow=none;html=1;rounded=0;" parent="1" source="jFr1V5iLm8L49rTAl1Lo-79" target="jFr1V5iLm8L49rTAl1Lo-84" edge="1">
          <mxGeometry relative="1" as="geometry">
            <mxPoint x="127.5" y="650" as="sourcePoint" />
            <mxPoint x="287.5" y="650" as="targetPoint" />
          </mxGeometry>
        </mxCell>
        <mxCell id="jFr1V5iLm8L49rTAl1Lo-88" value="OperationTime" style="ellipse;whiteSpace=wrap;html=1;align=center;" parent="1" vertex="1">
          <mxGeometry x="410" y="650" width="100" height="40" as="geometry" />
        </mxCell>
        <mxCell id="jFr1V5iLm8L49rTAl1Lo-89" value="" style="endArrow=none;html=1;rounded=0;" parent="1" source="jFr1V5iLm8L49rTAl1Lo-57" target="jFr1V5iLm8L49rTAl1Lo-88" edge="1">
          <mxGeometry relative="1" as="geometry">
            <mxPoint x="510" y="570" as="sourcePoint" />
            <mxPoint x="670" y="570" as="targetPoint" />
          </mxGeometry>
        </mxCell>
        <mxCell id="_gVGmNgQieUBv6OinKzh-1" value="idHandleRecord" style="ellipse;whiteSpace=wrap;html=1;align=center;fontStyle=4;" parent="1" vertex="1">
          <mxGeometry x="475" y="600" width="100" height="40" as="geometry" />
        </mxCell>
        <mxCell id="_gVGmNgQieUBv6OinKzh-2" value="" style="endArrow=none;html=1;rounded=0;" parent="1" source="jFr1V5iLm8L49rTAl1Lo-57" target="_gVGmNgQieUBv6OinKzh-1" edge="1">
          <mxGeometry relative="1" as="geometry">
            <mxPoint x="510" y="580" as="sourcePoint" />
            <mxPoint x="670" y="580" as="targetPoint" />
          </mxGeometry>
        </mxCell>
        <mxCell id="_gVGmNgQieUBv6OinKzh-3" value="ArticleNr" style="ellipse;whiteSpace=wrap;html=1;align=center;" parent="1" vertex="1">
          <mxGeometry x="332.5" y="610" width="100" height="40" as="geometry" />
        </mxCell>
        <mxCell id="_gVGmNgQieUBv6OinKzh-5" value="" style="endArrow=none;html=1;rounded=0;" parent="1" source="jFr1V5iLm8L49rTAl1Lo-57" target="_gVGmNgQieUBv6OinKzh-3" edge="1">
          <mxGeometry relative="1" as="geometry">
            <mxPoint x="640" y="540" as="sourcePoint" />
            <mxPoint x="800" y="540" as="targetPoint" />
          </mxGeometry>
        </mxCell>
        <mxCell id="Hy-uaHb2eXiMixHJtiIe-1" value="Password" style="ellipse;whiteSpace=wrap;html=1;align=center;" parent="1" vertex="1">
          <mxGeometry x="70" y="247.5" width="100" height="40" as="geometry" />
        </mxCell>
        <mxCell id="Hy-uaHb2eXiMixHJtiIe-2" value="" style="endArrow=none;html=1;rounded=0;" parent="1" source="Hy-uaHb2eXiMixHJtiIe-1" target="jFr1V5iLm8L49rTAl1Lo-65" edge="1">
          <mxGeometry relative="1" as="geometry">
            <mxPoint x="40" y="390" as="sourcePoint" />
            <mxPoint x="200" y="390" as="targetPoint" />
          </mxGeometry>
        </mxCell>
        <mxCell id="W6sS12mCfC2lYu0C6Cq5-1" value="OrdersArticleRelationship" style="shape=associativeEntity;whiteSpace=wrap;html=1;align=center;" vertex="1" parent="1">
          <mxGeometry x="460" y="277.5" width="180" height="60" as="geometry" />
        </mxCell>
        <mxCell id="W6sS12mCfC2lYu0C6Cq5-2" value="ArticleID" style="ellipse;whiteSpace=wrap;html=1;align=center;fontStyle=4;" vertex="1" parent="1">
          <mxGeometry x="490" y="100" width="100" height="40" as="geometry" />
        </mxCell>
        <mxCell id="W6sS12mCfC2lYu0C6Cq5-3" value="ArticleNr" style="ellipse;whiteSpace=wrap;html=1;align=center;" vertex="1" parent="1">
          <mxGeometry x="575" y="160" width="100" height="40" as="geometry" />
        </mxCell>
        <mxCell id="W6sS12mCfC2lYu0C6Cq5-5" value="" style="endArrow=none;html=1;rounded=0;" edge="1" parent="1" source="W6sS12mCfC2lYu0C6Cq5-1" target="W6sS12mCfC2lYu0C6Cq5-3">
          <mxGeometry relative="1" as="geometry">
            <mxPoint x="490" y="360" as="sourcePoint" />
            <mxPoint x="650" y="360" as="targetPoint" />
          </mxGeometry>
        </mxCell>
        <mxCell id="W6sS12mCfC2lYu0C6Cq5-10" value="" style="edgeStyle=entityRelationEdgeStyle;fontSize=12;html=1;endArrow=ERoneToMany;rounded=0;" edge="1" parent="1" source="W6sS12mCfC2lYu0C6Cq5-1" target="jFr1V5iLm8L49rTAl1Lo-65">
          <mxGeometry width="100" height="100" relative="1" as="geometry">
            <mxPoint x="550" y="390" as="sourcePoint" />
            <mxPoint x="650" y="290" as="targetPoint" />
          </mxGeometry>
        </mxCell>
        <mxCell id="W6sS12mCfC2lYu0C6Cq5-11" value="" style="edgeStyle=entityRelationEdgeStyle;fontSize=12;html=1;endArrow=ERzeroToMany;endFill=1;rounded=0;" edge="1" parent="1" source="W6sS12mCfC2lYu0C6Cq5-1" target="jFr1V5iLm8L49rTAl1Lo-74">
          <mxGeometry width="100" height="100" relative="1" as="geometry">
            <mxPoint x="550" y="390" as="sourcePoint" />
            <mxPoint x="650" y="290" as="targetPoint" />
          </mxGeometry>
        </mxCell>
        <mxCell id="W6sS12mCfC2lYu0C6Cq5-12" value="OrderID" style="ellipse;whiteSpace=wrap;html=1;align=center;fontStyle=4;" vertex="1" parent="1">
          <mxGeometry x="575" y="550" width="100" height="40" as="geometry" />
        </mxCell>
        <mxCell id="W6sS12mCfC2lYu0C6Cq5-13" value="Description" style="ellipse;whiteSpace=wrap;html=1;align=center;" vertex="1" parent="1">
          <mxGeometry x="640" y="630" width="100" height="40" as="geometry" />
        </mxCell>
        <mxCell id="W6sS12mCfC2lYu0C6Cq5-14" value="Deadline" style="ellipse;whiteSpace=wrap;html=1;align=center;" vertex="1" parent="1">
          <mxGeometry x="720" y="560" width="100" height="40" as="geometry" />
        </mxCell>
        <mxCell id="W6sS12mCfC2lYu0C6Cq5-15" value="" style="endArrow=none;html=1;rounded=0;" edge="1" parent="1" source="W6sS12mCfC2lYu0C6Cq5-12" target="jFr1V5iLm8L49rTAl1Lo-74">
          <mxGeometry relative="1" as="geometry">
            <mxPoint x="500" y="500" as="sourcePoint" />
            <mxPoint x="660" y="500" as="targetPoint" />
          </mxGeometry>
        </mxCell>
        <mxCell id="W6sS12mCfC2lYu0C6Cq5-16" value="" style="endArrow=none;html=1;rounded=0;" edge="1" parent="1" source="jFr1V5iLm8L49rTAl1Lo-74" target="W6sS12mCfC2lYu0C6Cq5-13">
          <mxGeometry relative="1" as="geometry">
            <mxPoint x="600" y="610" as="sourcePoint" />
            <mxPoint x="760" y="610" as="targetPoint" />
          </mxGeometry>
        </mxCell>
        <mxCell id="W6sS12mCfC2lYu0C6Cq5-17" value="" style="endArrow=none;html=1;rounded=0;" edge="1" parent="1" source="jFr1V5iLm8L49rTAl1Lo-74" target="W6sS12mCfC2lYu0C6Cq5-14">
          <mxGeometry relative="1" as="geometry">
            <mxPoint x="630" y="500" as="sourcePoint" />
            <mxPoint x="790" y="500" as="targetPoint" />
          </mxGeometry>
        </mxCell>
      </root>
    </mxGraphModel>
  </diagram>
</mxfile>
